<svg width="100" height="100" viewBox="0 0 100 100" fill="none" xmlns="http://www.w3.org/2000/svg">
<path d="M85.5584 14.5946C76.2941 5.1353 63.4877 0 50.4086 0C22.6161 0 0.272652 22.4324 0.544913 49.7296C0.544913 58.3783 2.99722 66.7569 7.08465 74.3243L0 100L26.4304 93.2432C33.7874 97.2975 41.9615 99.1894 50.1363 99.1894C77.6566 99.1894 100 76.7567 100 49.4599C100 36.2164 94.8223 23.7838 85.5584 14.5946ZM50.4086 90.8112C43.0517 90.8112 35.6948 88.9196 29.4277 85.1358L27.7929 84.3248L11.9893 88.3787L16.0763 72.9736L14.9865 71.3517C2.99722 52.1628 8.71939 26.7567 28.3378 14.8646C47.9563 2.97293 73.2969 8.64872 85.2862 28.1081C97.275 47.5676 91.5529 72.7028 71.9348 84.5949C65.6673 88.6488 58.0382 90.8112 50.4086 90.8112ZM74.3867 60.8115L71.3895 59.46C71.3895 59.46 67.0302 57.5681 64.3052 56.2167C64.0326 56.2167 63.7603 55.9462 63.4877 55.9462C62.6701 55.9462 62.1252 56.2167 61.5803 56.4871C61.5803 56.4871 61.308 56.7572 57.4932 61.0815C57.2206 61.622 56.6757 61.8925 56.1308 61.8925H55.8581C55.5858 61.8925 55.0409 61.622 54.7683 61.352L53.4058 60.8115C50.4086 59.46 47.684 57.8382 45.504 55.6762C44.9591 55.1357 44.1415 54.5952 43.5966 54.0547C41.6892 52.1628 39.7818 50.0004 38.4197 47.568L38.1471 47.0275C37.8748 46.757 37.8748 46.487 37.6021 45.9465C37.6021 45.406 37.6021 44.8655 37.8748 44.595C37.8748 44.595 38.9646 43.2436 39.7818 42.433C40.3271 41.8922 40.5994 41.0816 41.1443 40.5411C41.6892 39.7302 41.9618 38.6492 41.6892 37.8382C41.4169 36.4868 38.1471 29.1895 37.3299 27.568C36.7846 26.7571 36.2401 26.487 35.4225 26.2166H32.4253C31.88 26.2166 31.3354 26.487 30.7901 26.487L30.5175 26.7571C29.9726 27.0275 29.4277 27.568 28.8828 27.8381C28.3378 28.379 28.0652 28.9191 27.5203 29.46C25.6129 31.8924 24.5231 34.8653 24.5231 37.8382C24.5231 40.0002 25.068 42.1626 25.8855 44.0545L26.1582 44.8655C28.6105 50.0004 31.88 54.5952 36.2401 58.6491L37.3299 59.7301C38.1471 60.541 38.9646 61.0815 39.5095 61.8921C45.2317 66.7573 51.7711 70.2707 59.128 72.1627C59.9455 72.4327 61.0354 72.4327 61.8529 72.7032H64.5775C65.94 72.7032 67.5747 72.1627 68.6649 71.6222C69.4821 71.0817 70.027 71.0817 70.5719 70.5412L71.1172 70.0003C71.6622 69.4598 72.2071 69.1898 72.752 68.6493C73.2969 68.1088 73.8418 67.5683 74.1145 67.0274C74.6594 65.9464 74.9316 64.595 75.2043 63.2439V61.352C75.2043 61.352 74.9316 61.0815 74.3867 60.8115Z" fill="white"/>
</svg>
