<svg width="200" height="200" viewBox="0 0 200 200" fill="none" xmlns="http://www.w3.org/2000/svg">
<g clip-path="url(#clip0_10_34)">
<rect width="200" height="200" rx="44" fill="url(#paint0_linear_10_34)"/>
<g filter="url(#filter0_ddii_10_34)">
<path fill-rule="evenodd" clip-rule="evenodd" d="M30 100C30 61.3401 61.3401 30 100 30C138.66 30 170 61.3401 170 100C170 138.66 138.66 170 100 170C85.8729 170 72.7232 165.815 61.723 158.617C58.3223 155.777 47.4539 153.287 32.4683 168.239L32.3532 168.354L31.9998 168L31.6461 167.647L31.7613 167.532C46.7129 152.546 44.2229 141.678 41.3826 138.277C34.1849 127.277 30 114.127 30 100ZM100 155C130.376 155 155 130.376 155 100C155 69.6243 130.376 45 100 45C69.6243 45 45 69.6243 45 100C45 130.376 69.6243 155 100 155Z" fill="url(#paint1_linear_10_34)"/>
</g>
<g filter="url(#filter1_ddii_10_34)">
<path d="M131.243 124.082C131.246 124.079 131.248 124.077 131.251 124.074C132.253 123.059 132.249 121.418 131.243 120.408L119.845 108.895L119.837 108.887C118.831 107.877 117.203 107.88 116.201 108.895L109.743 115.509C107.862 117.393 104.914 117.651 102.739 116.121C98.9753 113.468 95.4526 110.482 92.2122 107.201C89.3058 104.281 86.6319 101.134 84.2157 97.7905C82.6245 95.5957 82.8656 92.5577 84.7824 90.6459L91.463 83.9097L91.4711 83.9015C92.4729 82.887 92.4693 81.2456 91.463 80.2354L80.0859 68.7634C80.0833 68.7606 80.0804 68.7579 80.0778 68.7553C79.0717 67.7451 77.4438 67.7487 76.4419 68.7634L72.8386 72.3968C68.4656 76.7342 66.8982 83.1904 68.7897 89.074C70.4396 94.0824 72.7695 98.8361 75.7131 103.2C78.4044 107.255 81.4898 111.03 84.9243 114.468C88.657 118.254 92.7915 121.615 97.253 124.49C102.055 127.671 107.331 130.055 112.881 131.553C118.39 132.879 124.186 131.208 128.166 127.144L131.243 124.062V124.082Z" fill="url(#paint2_linear_10_34)"/>
</g>
</g>
<defs>
<filter id="filter0_ddii_10_34" x="15" y="19" width="170" height="170" filterUnits="userSpaceOnUse" color-interpolation-filters="sRGB">
<feFlood flood-opacity="0" result="BackgroundImageFix"/>
<feColorMatrix in="SourceAlpha" type="matrix" values="0 0 0 0 0 0 0 0 0 0 0 0 0 0 0 0 0 0 127 0" result="hardAlpha"/>
<feOffset dy="4"/>
<feGaussianBlur stdDeviation="7.5"/>
<feColorMatrix type="matrix" values="0 0 0 0 0 0 0 0 0 0 0 0 0 0 0 0 0 0 0.3 0"/>
<feBlend mode="normal" in2="BackgroundImageFix" result="effect1_dropShadow_10_34"/>
<feColorMatrix in="SourceAlpha" type="matrix" values="0 0 0 0 0 0 0 0 0 0 0 0 0 0 0 0 0 0 127 0" result="hardAlpha"/>
<feOffset dy="1"/>
<feGaussianBlur stdDeviation="1.5"/>
<feColorMatrix type="matrix" values="0 0 0 0 0 0 0 0 0 0 0 0 0 0 0 0 0 0 0.25 0"/>
<feBlend mode="normal" in2="effect1_dropShadow_10_34" result="effect2_dropShadow_10_34"/>
<feBlend mode="normal" in="SourceGraphic" in2="effect2_dropShadow_10_34" result="shape"/>
<feColorMatrix in="SourceAlpha" type="matrix" values="0 0 0 0 0 0 0 0 0 0 0 0 0 0 0 0 0 0 127 0" result="hardAlpha"/>
<feOffset dy="-2"/>
<feGaussianBlur stdDeviation="2"/>
<feComposite in2="hardAlpha" operator="arithmetic" k2="-1" k3="1"/>
<feColorMatrix type="matrix" values="0 0 0 0 1 0 0 0 0 1 0 0 0 0 1 0 0 0 0.5 0"/>
<feBlend mode="normal" in2="shape" result="effect3_innerShadow_10_34"/>
<feColorMatrix in="SourceAlpha" type="matrix" values="0 0 0 0 0 0 0 0 0 0 0 0 0 0 0 0 0 0 127 0" result="hardAlpha"/>
<feOffset dy="-2"/>
<feGaussianBlur stdDeviation="6"/>
<feComposite in2="hardAlpha" operator="arithmetic" k2="-1" k3="1"/>
<feColorMatrix type="matrix" values="0 0 0 0 1 0 0 0 0 1 0 0 0 0 1 0 0 0 0.24 0"/>
<feBlend mode="normal" in2="effect3_innerShadow_10_34" result="effect4_innerShadow_10_34"/>
</filter>
<filter id="filter1_ddii_10_34" x="53" y="57" width="94" height="94" filterUnits="userSpaceOnUse" color-interpolation-filters="sRGB">
<feFlood flood-opacity="0" result="BackgroundImageFix"/>
<feColorMatrix in="SourceAlpha" type="matrix" values="0 0 0 0 0 0 0 0 0 0 0 0 0 0 0 0 0 0 127 0" result="hardAlpha"/>
<feOffset dy="4"/>
<feGaussianBlur stdDeviation="7.5"/>
<feColorMatrix type="matrix" values="0 0 0 0 0 0 0 0 0 0 0 0 0 0 0 0 0 0 0.3 0"/>
<feBlend mode="normal" in2="BackgroundImageFix" result="effect1_dropShadow_10_34"/>
<feColorMatrix in="SourceAlpha" type="matrix" values="0 0 0 0 0 0 0 0 0 0 0 0 0 0 0 0 0 0 127 0" result="hardAlpha"/>
<feOffset dy="1"/>
<feGaussianBlur stdDeviation="1.5"/>
<feColorMatrix type="matrix" values="0 0 0 0 0 0 0 0 0 0 0 0 0 0 0 0 0 0 0.25 0"/>
<feBlend mode="normal" in2="effect1_dropShadow_10_34" result="effect2_dropShadow_10_34"/>
<feBlend mode="normal" in="SourceGraphic" in2="effect2_dropShadow_10_34" result="shape"/>
<feColorMatrix in="SourceAlpha" type="matrix" values="0 0 0 0 0 0 0 0 0 0 0 0 0 0 0 0 0 0 127 0" result="hardAlpha"/>
<feOffset dy="-2"/>
<feGaussianBlur stdDeviation="2"/>
<feComposite in2="hardAlpha" operator="arithmetic" k2="-1" k3="1"/>
<feColorMatrix type="matrix" values="0 0 0 0 1 0 0 0 0 1 0 0 0 0 1 0 0 0 0.5 0"/>
<feBlend mode="normal" in2="shape" result="effect3_innerShadow_10_34"/>
<feColorMatrix in="SourceAlpha" type="matrix" values="0 0 0 0 0 0 0 0 0 0 0 0 0 0 0 0 0 0 127 0" result="hardAlpha"/>
<feOffset dy="-2"/>
<feGaussianBlur stdDeviation="6"/>
<feComposite in2="hardAlpha" operator="arithmetic" k2="-1" k3="1"/>
<feColorMatrix type="matrix" values="0 0 0 0 1 0 0 0 0 1 0 0 0 0 1 0 0 0 0.24 0"/>
<feBlend mode="normal" in2="effect3_innerShadow_10_34" result="effect4_innerShadow_10_34"/>
</filter>
<linearGradient id="paint0_linear_10_34" x1="100" y1="0" x2="100" y2="200" gradientUnits="userSpaceOnUse">
<stop stop-color="#36F27B"/>
<stop offset="1" stop-color="#0EB136"/>
</linearGradient>
<linearGradient id="paint1_linear_10_34" x1="100" y1="30" x2="100" y2="170" gradientUnits="userSpaceOnUse">
<stop stop-color="#FCFFFC"/>
<stop offset="1" stop-color="#95EFA7"/>
</linearGradient>
<linearGradient id="paint2_linear_10_34" x1="100" y1="68" x2="100" y2="132" gradientUnits="userSpaceOnUse">
<stop stop-color="#FBFFFB"/>
<stop offset="1" stop-color="#96EFA8"/>
</linearGradient>
<clipPath id="clip0_10_34">
<rect width="200" height="200" fill="white"/>
</clipPath>
</defs>
</svg>
